/usr/bin/start-video-rec.sh: line 70: kill: (754) - No such process
ffmpeg version 2.8.15-0ubuntu0.16.04.1 Copyright (c) 2000-2018 the FFmpeg developers
  built with gcc 5.4.0 (Ubuntu 5.4.0-6ubuntu1~16.04.10) 20160609
  configuration: --prefix=/usr --extra-version=0ubuntu0.16.04.1 --build-suffix=-ffmpeg --toolchain=hardened --libdir=/usr/lib/x86_64-linux-gnu --incdir=/usr/include/x86_64-linux-gnu --cc=cc --cxx=g++ --enable-gpl --enable-shared --disable-stripping --disable-decoder=libopenjpeg --disable-decoder=libschroedinger --enable-avresample --enable-avisynth --enable-gnutls --enable-ladspa --enable-libass --enable-libbluray --enable-libbs2b --enable-libcaca --enable-libcdio --enable-libflite --enable-libfontconfig --enable-libfreetype --enable-libfribidi --enable-libgme --enable-libgsm --enable-libmodplug --enable-libmp3lame --enable-libopenjpeg --enable-libopus --enable-libpulse --enable-librtmp --enable-libschroedinger --enable-libshine --enable-libsnappy --enable-libsoxr --enable-libspeex --enable-libssh --enable-libtheora --enable-libtwolame --enable-libvorbis --enable-libvpx --enable-libwavpack --enable-libwebp --enable-libx265 --enable-libxvid --enable-libzvbi --enable-openal --enable-opengl --enable-x11grab --enable-libdc1394 --enable-libiec61883 --enable-libzmq --enable-frei0r --enable-libx264 --enable-libopencv
  libavutil      54. 31.100 / 54. 31.100
  libavcodec     56. 60.100 / 56. 60.100
  libavformat    56. 40.101 / 56. 40.101
  libavdevice    56.  4.100 / 56.  4.100
  libavfilter     5. 40.101 /  5. 40.101
  libavresample   2.  1.  0 /  2.  1.  0
  libswscale      3.  1.101 /  3.  1.101
  libswresample   1.  2.101 /  1.  2.101
  libpostproc    53.  3.100 / 53.  3.100
Input #0, matroska,webm, from '/home/seluser/videos/vid_chrome_or_firefox_40004.mkv':
  Metadata:
    ENCODER         : Lavf56.40.101
  Duration: 00:00:36.10, start: 0.000000, bitrate: 48 kb/s
    Stream #0:0: Video: h264 (Constrained Baseline), yuv420p, 1920x1080, SAR 1:1 DAR 16:9, 10 fps, 10 tbr, 1k tbn, 20 tbc (default)
    Metadata:
      ENCODER         : Lavc56.60.100 libx264
      DURATION        : 00:00:36.100000000
[libx264 @ 0x2407740] using SAR=1/1
[libx264 @ 0x2407740] using cpu capabilities: MMX2 SSE2Fast SSSE3 SSE4.2 AVX FMA3 AVX2 LZCNT BMI2
[libx264 @ 0x2407740] profile Constrained Baseline, level 4.0
[libx264 @ 0x2407740] 264 - core 148 r2643 5c65704 - H.264/MPEG-4 AVC codec - Copyleft 2003-2015 - http://www.videolan.org/x264.html - options: cabac=0 ref=1 deblock=0:0:0 analyse=0:0 me=dia subme=0 psy=1 psy_rd=1.00:0.00 mixed_ref=0 me_range=16 chroma_me=1 trellis=0 8x8dct=0 cqm=0 deadzone=21,11 fast_pskip=1 chroma_qp_offset=0 threads=3 lookahead_threads=1 sliced_threads=0 nr=0 decimate=1 interlaced=0 bluray_compat=0 constrained_intra=0 bframes=0 weightp=0 keyint=250 keyint_min=10 scenecut=0 intra_refresh=0 rc=crf mbtree=0 crf=23.0 qcomp=0.60 qpmin=0 qpmax=69 qpstep=4 ip_ratio=1.40 aq=0
Output #0, mp4, to '/home/seluser/videos/vid_chrome_or_firefox_40004.mp4':
  Metadata:
    encoder         : Lavf56.40.101
    Stream #0:0: Video: h264 (libx264) ([33][0][0][0] / 0x0021), yuv420p, 1920x1080 [SAR 1:1 DAR 16:9], q=-1--1, 10 fps, 10240 tbn, 10 tbc (default)
    Metadata:
      DURATION        : 00:00:36.100000000
      encoder         : Lavc56.60.100 libx264
Stream mapping:
  Stream #0:0 -> #0:0 (h264 (native) -> h264 (libx264))
Press [q] to stop, [?] for help
frame=   20 fps=0.0 q=9.0 size=      62kB time=00:00:01.60 bitrate= 319.8kbits/s dup=16 drop=0    
frame=   55 fps= 42 q=9.0 size=      93kB time=00:00:05.10 bitrate= 149.5kbits/s dup=46 drop=0    
frame=   60 fps= 31 q=9.0 size=      94kB time=00:00:05.60 bitrate= 137.5kbits/s dup=50 drop=0    
frame=   72 fps= 29 q=9.0 size=      95kB time=00:00:06.80 bitrate= 114.8kbits/s dup=59 drop=0    
frame=   93 fps= 30 q=9.0 size=      98kB time=00:00:08.90 bitrate=  90.2kbits/s dup=77 drop=0    
frame=   99 fps= 26 q=9.0 size=      98kB time=00:00:09.50 bitrate=  84.9kbits/s dup=82 drop=0    
frame=  109 fps= 25 q=9.0 size=      99kB time=00:00:10.50 bitrate=  77.1kbits/s dup=90 drop=0    
frame=  127 fps= 25 q=9.0 size=     100kB time=00:00:12.30 bitrate=  66.4kbits/s dup=104 drop=0    
frame=  145 fps= 26 q=9.0 size=     102kB time=00:00:14.10 bitrate=  59.4kbits/s dup=118 drop=0    
frame=  152 fps= 25 q=9.0 size=     103kB time=00:00:14.80 bitrate=  56.8kbits/s dup=123 drop=0    
frame=  164 fps= 24 q=9.0 size=     103kB time=00:00:16.00 bitrate=  52.8kbits/s dup=130 drop=0    
frame=  178 fps= 24 q=9.0 size=     104kB time=00:00:17.40 bitrate=  48.9kbits/s dup=140 drop=0    
frame=  187 fps= 23 q=9.0 size=     104kB time=00:00:18.30 bitrate=  46.7kbits/s dup=145 drop=0    
frame=  198 fps= 23 q=9.0 size=     105kB time=00:00:19.40 bitrate=  44.3kbits/s dup=153 drop=0    
frame=  211 fps= 23 q=9.0 size=     106kB time=00:00:20.70 bitrate=  41.8kbits/s dup=162 drop=0    
frame=  221 fps= 23 q=9.0 size=     106kB time=00:00:21.70 bitrate=  40.0kbits/s dup=168 drop=0    
frame=  233 fps= 23 q=9.0 size=     112kB time=00:00:22.90 bitrate=  40.1kbits/s dup=169 drop=0    
frame=  249 fps= 23 q=9.0 size=     117kB time=00:00:24.50 bitrate=  39.3kbits/s dup=169 drop=0    
frame=  257 fps= 23 q=10.0 size=     173kB time=00:00:25.30 bitrate=  56.0kbits/s dup=169 drop=0    
frame=  264 fps= 22 q=11.0 size=     174kB time=00:00:26.00 bitrate=  54.9kbits/s dup=169 drop=0    
frame=  276 fps= 22 q=9.0 size=     178kB time=00:00:27.20 bitrate=  53.7kbits/s dup=169 drop=0    
frame=  285 fps= 22 q=9.0 size=     183kB time=00:00:28.10 bitrate=  53.3kbits/s dup=169 drop=0    
frame=  301 fps= 23 q=12.0 size=     226kB time=00:00:29.70 bitrate=  62.4kbits/s dup=169 drop=0    
frame=  309 fps= 22 q=9.0 size=     237kB time=00:00:30.50 bitrate=  63.8kbits/s dup=169 drop=0    
frame=  326 fps= 23 q=9.0 size=     240kB time=00:00:32.20 bitrate=  61.1kbits/s dup=170 drop=0    
frame=  335 fps= 22 q=9.0 size=     241kB time=00:00:33.10 bitrate=  59.6kbits/s dup=170 drop=0    
frame=  344 fps= 22 q=9.0 size=     245kB time=00:00:34.00 bitrate=  59.1kbits/s dup=170 drop=0    
frame=  355 fps= 22 q=9.0 size=     247kB time=00:00:35.10 bitrate=  57.6kbits/s dup=174 drop=0    
frame=  361 fps= 21 q=-1.0 Lsize=     249kB time=00:00:36.10 bitrate=  56.6kbits/s dup=175 drop=0    
video:247kB audio:0kB subtitle:0kB other streams:0kB global headers:0kB muxing overhead: 0.895482%
[libx264 @ 0x2407740] frame I:2     Avg QP:13.50  size: 39774
[libx264 @ 0x2407740] frame P:359   Avg QP: 9.29  size:   482
[libx264 @ 0x2407740] mb I  I16..4: 100.0%  0.0%  0.0%
[libx264 @ 0x2407740] mb P  I16..4:  0.8%  0.0%  0.0%  P16..4:  0.3%  0.0%  0.0%  0.0%  0.0%    skip:99.0%
[libx264 @ 0x2407740] coded y,uvDC,uvAC intra: 4.6% 3.1% 2.9% inter: 0.1% 0.1% 0.1%
[libx264 @ 0x2407740] i16 v,h,dc,p: 87% 13%  0%  0%
[libx264 @ 0x2407740] i8c dc,h,v,p: 91%  8%  1%  0%
[libx264 @ 0x2407740] kb/s:55.94
